<svg id="4ff324a4-924c-4f1f-8c6b-c9a26f6841d8" data-name="Vrstva 3" xmlns="http://www.w3.org/2000/svg" viewBox="0 0 1000 366.56"><defs><style>.\38 0bbd436-8a07-4ec1-b3b8-a8529370e9f8{fill:#fff;}.\30 95ddcfa-c545-43ca-814d-548684fdb16d{fill:#f05647;}</style></defs><title>logo-white</title><path class="80bbd436-8a07-4ec1-b3b8-a8529370e9f8" d="M66.09,347.16H0v-153H66.09v24.59H27.28V255.2h36v24.69h-36v42.37H66.09Z" transform="translate(0 -28.28)"/><path class="80bbd436-8a07-4ec1-b3b8-a8529370e9f8" d="M167.38,241.28q0,24.38-11.78,37.4t-34,13h-6.82v55.45H87.45v-153h37.21Q167.38,194.2,167.38,241.28ZM114.73,267h5.21q10,0,14.94-5.75t4.91-18.83q0-12-4.51-17.83t-13.94-5.81h-6.62Z" transform="translate(0 -28.28)"/><path class="80bbd436-8a07-4ec1-b3b8-a8529370e9f8" d="M190.74,347.16v-153h25.67v153Z" transform="translate(0 -28.28)"/><path class="80bbd436-8a07-4ec1-b3b8-a8529370e9f8" d="M314.19,305q0,21.45-10.38,32.85t-29.93,11.4q-19.16,0-32.59-7.85V313.26q16.44,11.2,30.19,11.19,7.82,0,11.79-4.5t4-12.24a22.89,22.89,0,0,0-4.71-14q-4.72-6.33-15.54-14.07-9.43-6.8-14.29-13a47.54,47.54,0,0,1-7.52-14,55.34,55.34,0,0,1-2.66-18q0-19.67,10.48-31.18T281.1,192q16.85,0,32.39,9.83l-9,22.81a84.81,84.81,0,0,0-10.08-5.23,27.89,27.89,0,0,0-11.28-2.3q-6.62,0-10.18,4.55t-3.56,12.39a22,22,0,0,0,4.26,13.5q4.26,5.76,14.89,13.08,14.34,10,20,20.51A49.33,49.33,0,0,1,314.19,305Z" transform="translate(0 -28.28)"/><path class="80bbd436-8a07-4ec1-b3b8-a8529370e9f8" d="M433.13,270.47q0,38-13.64,58.38t-39,20.4q-25.48,0-39.11-20.35t-13.64-58.64q0-38,13.64-58.22t39.31-20.25q25.37,0,38.91,20.35T433.13,270.47Zm-77.52,0q0,26.16,6.32,39.86T380.48,324q24.67,0,24.67-53.57t-24.47-53.57q-12.44,0-18.75,13.65T355.61,270.47Z" transform="translate(0 -28.28)"/><path class="095ddcfa-c545-43ca-814d-548684fdb16d" d="M978.89,72.28l-68.3.17v30.13c0,13.37-10.59,24.32-23.52,24.32S863.55,116,863.55,102.58v-30l-230.14.59v29.43c0,13.37-10.59,24.32-23.52,24.32S586.36,116,586.36,102.58V73.28l-46.7.12c-15.08,0-30.68,14.12-34.67,31.27L444.75,363.73c-4,17.15,5.09,31.15,20.17,31.1l439.23-1.12c15.08,0,30.68-14.12,34.67-31.27l60.25-259.07C1003,86.23,994,72.23,978.89,72.28Z" transform="translate(0 -28.28)"/><path class="80bbd436-8a07-4ec1-b3b8-a8529370e9f8" d="M621.45,256.24q0,37.88-14.79,57.91t-42.57,20h-35.9v-153H567.4q25.57,0,39.81,19.72T621.45,256.24Zm-28,.84q0-51.26-27.08-51.26H555.46V309.29h8.83q14.95,0,22.06-13T593.47,257.08Z" transform="translate(0 -28.28)"/><path class="80bbd436-8a07-4ec1-b3b8-a8529370e9f8" d="M712.21,334.19l-8.42-38.6H665.57l-8.42,38.6H629.87l36.3-153.58h37l36.4,153.58Zm-13.54-63.82-7.82-35.57q-.7-3.24-3.16-16.27t-3-17.42q-1.31,9-3.31,19.82T671,270.37Z" transform="translate(0 -28.28)"/><path class="80bbd436-8a07-4ec1-b3b8-a8529370e9f8" d="M790.53,334.19H763.36v-128H735.28v-25h83.33v25H790.53Z" transform="translate(0 -28.28)"/><path class="80bbd436-8a07-4ec1-b3b8-a8529370e9f8" d="M900.35,334.19H834.25v-153h66.09v24.59H861.53v36.41h36v24.69h-36v42.37h38.82Z" transform="translate(0 -28.28)"/><rect class="80bbd436-8a07-4ec1-b3b8-a8529370e9f8" x="595.64" y="1.06" width="28.67" height="88" rx="12" ry="12"/><rect class="80bbd436-8a07-4ec1-b3b8-a8529370e9f8" x="872.8" width="28.67" height="88" rx="12" ry="12"/></svg>